<?xml version="1.0" encoding="UTF-8"?>
<svg id="Layer_2" data-name="Layer 2" xmlns="http://www.w3.org/2000/svg" viewBox="0 0 77.41 38.46">
  <defs>
    <style>
      .cls-1 {
        fill: #6ba843;
        stroke-width: 0px;
      }
    </style>
  </defs>
  <g id="Layer_1-2" data-name="Layer 1">
    <g>
      <path class="cls-1" d="M8.23,38.34h-2.5l-4.04-7.02h-.06c.08,1.24.12,2.12.12,2.65v4.37H0v-9.28h2.48l4.03,6.95h.04c-.06-1.21-.1-2.06-.1-2.56v-4.39h1.77v9.28Z"/>
      <path class="cls-1" d="M18.34,29.05v6c0,.69-.15,1.29-.46,1.8-.31.52-.75.91-1.33,1.19-.58.28-1.27.41-2.06.41-1.19,0-2.12-.31-2.78-.92s-.99-1.45-.99-2.51v-5.98h1.96v5.68c0,.71.14,1.24.43,1.57.29.33.76.5,1.43.5s1.11-.17,1.4-.5c.29-.34.44-.86.44-1.58v-5.67h1.96Z"/>
      <path class="cls-1" d="M24.42,38.34h-1.97v-7.64h-2.52v-1.64h7.01v1.64h-2.52v7.64Z"/>
      <path class="cls-1" d="M30.55,34.77v3.56h-1.97v-9.28h2.7c1.26,0,2.19.23,2.8.69.6.46.91,1.16.91,2.09,0,.55-.15,1.03-.45,1.46-.3.42-.73.76-1.28,1,1.4,2.09,2.31,3.43,2.73,4.04h-2.18l-2.22-3.56h-1.05ZM30.55,33.17h.63c.62,0,1.08-.1,1.38-.31s.44-.53.44-.98-.15-.75-.45-.94c-.3-.19-.77-.28-1.41-.28h-.6v2.51Z"/>
      <path class="cls-1" d="M37.39,38.34v-9.28h1.97v9.28h-1.97Z"/>
      <path class="cls-1" d="M45.84,38.34l-2.23-7.28h-.06c.08,1.48.12,2.47.12,2.96v4.32h-1.76v-9.28h2.68l2.2,7.1h.04l2.33-7.1h2.68v9.28h-1.83v-4.39c0-.21,0-.45,0-.72,0-.27.03-.99.09-2.16h-.06l-2.39,7.27h-1.8Z"/>
      <path class="cls-1" d="M54.39,38.34v-9.28h1.97v9.28h-1.97Z"/>
      <path class="cls-1" d="M67.15,38.34h-2.5l-4.04-7.02h-.06c.08,1.24.12,2.12.12,2.65v4.37h-1.76v-9.28h2.48l4.03,6.95h.04c-.06-1.21-.1-2.06-.1-2.56v-4.39h1.77v9.28Z"/>
      <path class="cls-1" d="M77.41,33.61c0,1.53-.44,2.7-1.3,3.51-.87.81-2.13,1.22-3.77,1.22h-2.63v-9.28h2.91c1.52,0,2.69.4,3.53,1.2.84.8,1.26,1.92,1.26,3.35ZM75.36,33.66c0-1.99-.88-2.99-2.64-2.99h-1.05v6.04h.84c1.9,0,2.84-1.02,2.84-3.05Z"/>
    </g>
    <g>
      <g>
        <path class="cls-1" d="M41.51,16.64v2.32c-.32.06-.65.08-.99.08s-.67-.03-.99-.08c-3.82-.65-5.79-5.02-7.54-8.92-.06-.13-.12-.26-.17-.39-.18-.4-.36-.81-.55-1.2-.45-.96-.9-1.88-1.38-2.69-.2-.33-.4-.65-.61-.95-.06-.08-.11-.16-.17-.23-.21-.28-.42-.53-.65-.76-.63-.65-1.33-1.1-2.13-1.27-.22-.05-.44-.07-.68-.07-.19,0-.38.02-.56.05-2.61.43-4.15,3.88-5.78,7.51-1.9,4.22-4.81,8.93-9.3,8.93h.02c1.93-.36,5.35-6.09,7.1-9.98C19.01,4.78,21.16,0,25.64,0c.6,0,1.15.1,1.67.28.37.13.72.3,1.05.5.75.45,1.42,1.08,2.02,1.82.05.06.1.12.14.18.18.23.35.47.52.71l.09.14c.5.74.95,1.55,1.37,2.37.19.36.36.73.53,1.09h0c.43.91.82,1.81,1.2,2.66,1.68,3.75,2.87,6.39,5.28,6.94.21.05.42.08.64.1.11,0,.23.01.35.01.3,0,.58-.04.85-.12.05-.01.1-.03.15-.04Z"/>
        <path class="cls-1" d="M40.51,16.8v2.24c-.34,0-.67-.03-.99-.08-3.82-.65-5.79-5.02-7.54-8.92-.06-.13-.12-.26-.17-.39-.18-.4-.36-.81-.55-1.2-.45-.96-.9-1.88-1.38-2.69-.2-.33-.4-.65-.61-.95-.06-.08-.11-.16-.17-.23-.21-.28-.42-.53-.65-.76-.63-.65-1.33-1.1-2.13-1.27-.22-.05-.44-.07-.68-.07-.19,0-.38.02-.56.05-2.61.43-4.15,3.88-5.78,7.51-1.9,4.22-4.81,8.93-9.3,8.93h.02c1.93-.36,5.35-6.09,7.1-9.98C19.01,4.78,21.16,0,25.64,0c.6,0,1.15.1,1.67.28.37.13.72.3,1.05.5.75.45,1.42,1.08,2.02,1.82.05.06.1.12.14.18.18.23.35.47.52.71l.09.14c.5.74.95,1.55,1.37,2.37.19.36.36.73.53,1.09h0c.43.91.82,1.81,1.2,2.66,1.68,3.75,2.87,6.39,5.28,6.94.21.05.42.08.64.1.11,0,.23.01.35.01Z"/>
        <path class="cls-1" d="M46,15.8c.05-.07.1-.14.14-.21.44-.62.84-1.3,1.21-2,.19-.35.37-.71.55-1.07h0c.4-.82.78-1.66,1.15-2.48,1.74-3.89,5.16-9.61,7.1-9.97h.02c-4.49,0-7.41,4.71-9.3,8.93-.1.23-.2.45-.31.68-.18.4-.36.81-.55,1.2-.39.86-.8,1.68-1.22,2.43-.2.34-.4.67-.6.98-.12.18-.24.35-.36.51-.21.28-.43.53-.65.76-.5.51-1.05.89-1.65,1.08-.05.02-.1.03-.15.04-.27.08-.55.12-.85.12-.12,0-.24,0-.35-.01-.23-.02-.44-.05-.64-.1v2.27c.32.06.65.08.99.08s.68-.03.99-.08c.25-.04.48-.1.71-.17.39-.12.76-.28,1.1-.48h0c.67-.37,1.27-.87,1.81-1.47.04-.04.08-.09.12-.13.09-.1.17-.2.26-.3.16-.2.32-.4.48-.62h0Z"/>
        <path class="cls-1" d="M56.16.07h-.02c-1.93.36-5.35,6.09-7.1,9.98-.37.82-.74,1.65-1.15,2.47h0c-.18.36-.36.72-.55,1.08-.37.7-.78,1.38-1.21,2-.05.07-.1.14-.14.21,0,0,0,0,0,0-.16.21-.32.42-.48.62-.08.1-.17.2-.26.3-.04.04-.08.09-.12.13-.55.59-1.15,1.09-1.81,1.47h0c-.35.2-.72.36-1.1.48-.23.07-.47.13-.71.17-.32.06-.65.08-.99.08v-2.24c.3,0,.58-.04.85-.12.05-.01.1-.03.15-.04.61-.2,1.15-.57,1.65-1.08.23-.23.44-.48.65-.76.12-.16.24-.33.36-.51.21-.31.41-.63.6-.98.42-.75.83-1.58,1.22-2.43.18-.39.36-.8.55-1.2.1-.23.2-.45.31-.68C48.75,4.78,51.67.07,56.16.07Z"/>
      </g>
      <path class="cls-1" d="M25.64,3.48c.81,0,1.52.41,2.17,1.1-1.07,1.42-1.96,3.41-2.88,5.46-1.89,4.22-4.81,8.93-9.3,8.93h.02c1.93-.36,5.35-6.09,7.1-9.98.85-1.89,1.74-3.89,2.88-5.52h.02Z"/>
      <path class="cls-1" d="M30.53,2.78c.18.23.35.47.52.71-.48.04-.92.24-1.34.54-.21.15-.41.34-.61.55-.21-.28-.42-.53-.65-.76-.63-.65-1.33-1.1-2.13-1.27-.22-.05-.44-.07-.68-.07-.19,0-.38.02-.56.05.66-.88,1.39-1.65,2.23-2.25.37.13.72.3,1.05.5.75.45,1.42,1.08,2.02,1.82.05.06.1.12.14.18Z"/>
      <path class="cls-1" d="M46,15.8c-.38-.01-.73-.09-1.05-.22h0c-.4-.17-.77-.42-1.12-.78-.21.28-.43.53-.65.76-.5.51-1.05.89-1.65,1.08-.05.02-.1.03-.15.04-.27.08-.55.12-.85.12-.12,0-.24,0-.35-.01.12.14.23.29.35.42.31.36.64.71.99,1.01.23.2.47.39.71.56.39-.12.76-.28,1.1-.48h0c.67-.37,1.27-.87,1.81-1.47.04-.04.08-.09.12-.13.09-.1.17-.2.26-.3.16-.2.32-.4.48-.62h0Z"/>
      <path class="cls-1" d="M45.14,18.23c.35-.31.68-.65.99-1.01.12-.14.24-.29.35-.43.17-.02.33-.05.49-.1.05-.01.1-.03.15-.04v2.32c-.32.06-.65.08-.99.08s-.68-.03-.99-.08c-.25-.04-.48-.1-.71-.17l.71-.56Z"/>
      <path class="cls-1" d="M30.39,2.6c-.72.19-1.36.62-1.94,1.22-.63-.65-1.33-1.1-2.13-1.27.61-.72,1.29-1.34,2.05-1.78.75.45,1.42,1.08,2.02,1.82Z"/>
      <path class="cls-1" d="M43.33,18.31h0c-.67-.37-1.27-.88-1.82-1.47-.05-.05-.1-.11-.15-.16.05-.01.1-.03.15-.04.61-.2,1.15-.57,1.65-1.08.57.57,1.21.96,1.98,1.13.04,0,.08.02.12.03-.04.04-.08.09-.12.13-.55.59-1.15,1.09-1.81,1.47Z"/>
      <path class="cls-1" d="M45.99,15.81c-.16.21-.32.42-.48.62-.08.1-.17.2-.26.3-.04.04-.08.09-.12.13v-1.04h.85Z"/>
      <path class="cls-1" d="M61.78.07h-.02c-1.93.36-5.35,6.09-7.09,9.98-.89,1.98-1.84,4.08-3.05,5.76.05,0,.1,0,.14,0h-.15c-.24.32-.48.63-.73.91-.04.04-.08.09-.12.13-.55.59-1.15,1.09-1.81,1.47h0c-.35.2-.72.36-1.1.48-.23.07-.47.13-.71.17-.32.06-.65.08-.99.08s-.68-.03-.99-.08v-.73c.35-.31.68-.65.99-1.01.12-.14.24-.29.35-.43.17-.02.33-.05.49-.1.05-.01.1-.03.15-.04.61-.2,1.15-.57,1.65-1.08.23-.23.44-.48.65-.76,1.14-1.5,2.08-3.65,3.04-5.8C54.37,4.78,57.29.07,61.78.07Z"/>
      <path class="cls-1" d="M29.02,6.84c.47.86.92,1.82,1.37,2.81-.06.13-.12.26-.17.39-1.89,4.22-4.81,8.93-9.3,8.93h.02c1.93-.36,5.35-6.09,7.1-9.98.32-.71.65-1.44.99-2.16Z"/>
      <path class="cls-1" d="M31.14,3.62c.5.74.95,1.55,1.37,2.37.19.36.36.73.53,1.09h0c-.42.79-.82,1.66-1.23,2.56-.18-.4-.36-.81-.55-1.2-.45-.96-.9-1.88-1.38-2.69-.2-.33-.4-.65-.61-.95.14-.27.29-.53.44-.78.26-.43.53-.86.82-1.26.18.23.35.47.52.71l.09.14Z"/>
      <path class="cls-1" d="M46,15.8c.05-.07.1-.14.14-.21.44-.62.84-1.3,1.21-2,.19-.35.37-.71.55-1.07h0c-.41-.8-.85-1.74-1.35-2.84-.18.4-.36.81-.55,1.2-.39.86-.8,1.68-1.22,2.43-.2.34-.4.67-.6.98.24.44.49.87.76,1.29h0c.06.1.13.21.2.31.12.18.24.36.37.53.16-.2.32-.4.48-.62h0Z"/>
      <path class="cls-1" d="M52.76,16.64v2.32c-.32.06-.65.08-.99.08s-.68-.03-.99-.08c-.25-.04-.48-.1-.71-.17.25-.17.48-.36.71-.56.35-.31.68-.65.99-1.01.12-.14.24-.29.35-.43.22-.02.43-.07.64-.14Z"/>
      <path class="cls-1" d="M32.51,6c-.43.76-.84,1.59-1.24,2.46-.45-.96-.9-1.88-1.38-2.69.39-.75.81-1.48,1.26-2.14.5.74.95,1.55,1.37,2.37Z"/>
      <path class="cls-1" d="M47.35,13.6c-.37.7-.78,1.38-1.21,2-.49-.7-.94-1.48-1.36-2.28.42-.75.83-1.58,1.22-2.43.46,1.01.9,1.92,1.35,2.71Z"/>
      <path class="cls-1" d="M51.76,17.21v1.83c-.34,0-.68-.03-.99-.08-.25-.04-.48-.1-.71-.17.25-.17.48-.36.71-.56.35-.31.68-.65.99-1.01Z"/>
      <path class="cls-1" d="M50.88,16.72s-.08.09-.12.13v-1.04h.85c-.24.32-.48.63-.73.91Z"/>
      <path class="cls-1" d="M67.41.07h-.02c-1.93.36-5.35,6.09-7.1,9.98-1.75,3.89-3.71,8.27-7.54,8.92-.32.06-.65.08-.99.08s-.68-.03-.99-.08v-.73c.35-.31.68-.65.99-1.01.12-.14.24-.29.35-.43.22-.02.43-.07.64-.14,2.34-.77,3.81-4.21,5.35-7.64C60,4.78,62.92.07,67.41.07Z"/>
      <path class="cls-1" d="M67.41.07h-.02c-1.93.36-5.35,6.09-7.1,9.98-1.75,3.89-3.71,8.27-7.54,8.92-.32.06-.65.08-.99.08v-1.83c.12-.14.24-.29.35-.43.22-.02.43-.07.64-.14,2.34-.77,3.81-4.21,5.35-7.64C60,4.78,62.92.07,67.41.07Z"/>
      <path class="cls-1" d="M39.8,15.64c.81,0,1.52-.41,2.17-1.1-1.07-1.42-1.96-3.41-2.88-5.46C37.19,4.86,34.27.14,29.79.14h.02c1.93.36,5.35,6.09,7.1,9.98.85,1.89,1.74,3.89,2.88,5.52h.02Z"/>
      <path class="cls-1" d="M43.18,12.61c.47-.86.92-1.82,1.37-2.81-.06-.13-.12-.26-.17-.39-1.89-4.22-4.81-8.93-9.3-8.93h.02c1.93.36,5.35,6.09,7.1,9.98.32.71.65,1.44.99,2.16Z"/>
    </g>
  </g>
</svg>